{
    "asset" : {
        "generator" : "Khronos glTF Blender I/O v1.6.16",
        "version" : "2.0"
    },
    "scene" : 0,
    "scenes" : [
        {
            "name" : "Scene",
            "nodes" : [
                0,
                1,
                2,
                3,
                4,
                5,
                6
            ]
        }
    ],
    "nodes" : [
        {
            "mesh" : 0,
            "name" : "PrimaryColorMat"
        },
        {
            "mesh" : 1,
            "name" : "SoleMaterial"
        },
        {
            "mesh" : 2,
            "name" : "ThirdColorMat"
        },
        {
            "mesh" : 3,
            "name" : "SecondaryColorMat"
        },
        {
            "mesh" : 4,
            "name" : "NikeCheckMat"
        },
        {
            "mesh" : 5,
            "name" : "BottomBodyMat"
        },
        {
            "mesh" : 6,
            "name" : "LacesMat"
        }
    ],
    "materials" : [
        {
            "doubleSided" : true,
            "name" : "Main",
            "normalTexture" : {
                "index" : 0
            },
            "pbrMetallicRoughness" : {
                "baseColorTexture" : {
                    "index" : 1
                },
                "metallicRoughnessTexture" : {
                    "index" : 2
                }
            }
        }
    ],
    "meshes" : [
        {
            "name" : "Object_4",
            "primitives" : [
                {
                    "attributes" : {
                        "POSITION" : 0,
                        "NORMAL" : 1,
                        "TEXCOORD_0" : 2,
                        "TEXCOORD_1" : 3,
                        "TEXCOORD_2" : 4,
                        "TEXCOORD_3" : 5
                    },
                    "indices" : 6,
                    "material" : 0
                }
            ]
        },
        {
            "name" : "Object_5",
            "primitives" : [
                {
                    "attributes" : {
                        "POSITION" : 7,
                        "NORMAL" : 8,
                        "TEXCOORD_0" : 9,
                        "TEXCOORD_1" : 10,
                        "TEXCOORD_2" : 11,
                        "TEXCOORD_3" : 12
                    },
                    "indices" : 13,
                    "material" : 0
                }
            ]
        },
        {
            "name" : "Object_11",
            "primitives" : [
                {
                    "attributes" : {
                        "POSITION" : 14,
                        "NORMAL" : 15,
                        "TEXCOORD_0" : 16,
                        "TEXCOORD_1" : 17,
                        "TEXCOORD_2" : 18,
                        "TEXCOORD_3" : 19
                    },
                    "indices" : 20,
                    "material" : 0
                }
            ]
        },
        {
            "name" : "Object_14",
            "primitives" : [
                {
                    "attributes" : {
                        "POSITION" : 21,
                        "NORMAL" : 22,
                        "TEXCOORD_0" : 23,
                        "TEXCOORD_1" : 24,
                        "TEXCOORD_2" : 25,
                        "TEXCOORD_3" : 26
                    },
                    "indices" : 27,
                    "material" : 0
                }
            ]
        },
        {
            "name" : "Object_15",
            "primitives" : [
                {
                    "attributes" : {
                        "POSITION" : 28,
                        "NORMAL" : 29,
                        "TEXCOORD_0" : 30,
                        "TEXCOORD_1" : 31,
                        "TEXCOORD_2" : 32,
                        "TEXCOORD_3" : 33
                    },
                    "indices" : 34,
                    "material" : 0
                }
            ]
        },
        {
            "name" : "Object_17",
            "primitives" : [
                {
                    "attributes" : {
                        "POSITION" : 35,
                        "NORMAL" : 36,
                        "TEXCOORD_0" : 37,
                        "TEXCOORD_1" : 38,
                        "TEXCOORD_2" : 39,
                        "TEXCOORD_3" : 40
                    },
                    "indices" : 41,
                    "material" : 0
                }
            ]
        },
        {
            "name" : "Object_18",
            "primitives" : [
                {
                    "attributes" : {
                        "POSITION" : 42,
                        "NORMAL" : 43,
                        "TEXCOORD_0" : 44,
                        "TEXCOORD_1" : 45,
                        "TEXCOORD_2" : 46,
                        "TEXCOORD_3" : 47
                    },
                    "indices" : 48,
                    "material" : 0
                }
            ]
        }
    ],
    "textures" : [
        {
            "sampler" : 0,
            "source" : 0
        },
        {
            "sampler" : 0,
            "source" : 1
        },
        {
            "sampler" : 0,
            "source" : 2
        }
    ],
    "images" : [
        {
            "mimeType" : "image/png",
            "name" : "Image_2",
            "uri" : "Image_2.png"
        },
        {
            "mimeType" : "image/png",
            "name" : "Image_0",
            "uri" : "Image_0.png"
        },
        {
            "mimeType" : "image/png",
            "name" : "Image_1",
            "uri" : "Image_1.png"
        }
    ],
    "accessors" : [
        {
            "bufferView" : 0,
            "componentType" : 5126,
            "count" : 24742,
            "max" : [
                0.8582162857055664,
                1.3178164958953857,
                0.7123233079910278
            ],
            "min" : [
                -3.1199018955230713,
                -0.9108718633651733,
                -0.7513390779495239
            ],
            "type" : "VEC3"
        },
        {
            "bufferView" : 1,
            "componentType" : 5126,
            "count" : 24742,
            "type" : "VEC3"
        },
        {
            "bufferView" : 2,
            "componentType" : 5126,
            "count" : 24742,
            "type" : "VEC2"
        },
        {
            "bufferView" : 3,
            "componentType" : 5126,
            "count" : 24742,
            "type" : "VEC2"
        },
        {
            "bufferView" : 4,
            "componentType" : 5126,
            "count" : 24742,
            "type" : "VEC2"
        },
        {
            "bufferView" : 5,
            "componentType" : 5126,
            "count" : 24742,
            "type" : "VEC2"
        },
        {
            "bufferView" : 6,
            "componentType" : 5123,
            "count" : 118326,
            "type" : "SCALAR"
        },
        {
            "bufferView" : 7,
            "componentType" : 5126,
            "count" : 20643,
            "max" : [
                0.9641463756561279,
                -0.8480994701385498,
                0.8310821056365967
            ],
            "min" : [
                -3.3397583961486816,
                -1.2896889448165894,
                -0.7795673608779907
            ],
            "type" : "VEC3"
        },
        {
            "bufferView" : 8,
            "componentType" : 5126,
            "count" : 20643,
            "type" : "VEC3"
        },
        {
            "bufferView" : 9,
            "componentType" : 5126,
            "count" : 20643,
            "type" : "VEC2"
        },
        {
            "bufferView" : 10,
            "componentType" : 5126,
            "count" : 20643,
            "type" : "VEC2"
        },
        {
            "bufferView" : 11,
            "componentType" : 5126,
            "count" : 20643,
            "type" : "VEC2"
        },
        {
            "bufferView" : 12,
            "componentType" : 5126,
            "count" : 20643,
            "type" : "VEC2"
        },
        {
            "bufferView" : 13,
            "componentType" : 5123,
            "count" : 101025,
            "type" : "SCALAR"
        },
        {
            "bufferView" : 14,
            "componentType" : 5126,
            "count" : 15584,
            "max" : [
                0.7706924080848694,
                1.3247915506362915,
                0.5889002084732056
            ],
            "min" : [
                -0.630552351474762,
                0.06221890449523926,
                -0.7292940020561218
            ],
            "type" : "VEC3"
        },
        {
            "bufferView" : 15,
            "componentType" : 5126,
            "count" : 15584,
            "type" : "VEC3"
        },
        {
            "bufferView" : 16,
            "componentType" : 5126,
            "count" : 15584,
            "type" : "VEC2"
        },
        {
            "bufferView" : 17,
            "componentType" : 5126,
            "count" : 15584,
            "type" : "VEC2"
        },
        {
            "bufferView" : 18,
            "componentType" : 5126,
            "count" : 15584,
            "type" : "VEC2"
        },
        {
            "bufferView" : 19,
            "componentType" : 5126,
            "count" : 15584,
            "type" : "VEC2"
        },
        {
            "bufferView" : 20,
            "componentType" : 5123,
            "count" : 64716,
            "type" : "SCALAR"
        },
        {
            "bufferView" : 21,
            "componentType" : 5126,
            "count" : 43813,
            "max" : [
                0.9575570225715637,
                1.223578691482544,
                0.8044230937957764
            ],
            "min" : [
                -3.298978805541992,
                -0.9614666104316711,
                -0.7667978405952454
            ],
            "type" : "VEC3"
        },
        {
            "bufferView" : 22,
            "componentType" : 5126,
            "count" : 43813,
            "type" : "VEC3"
        },
        {
            "bufferView" : 23,
            "componentType" : 5126,
            "count" : 43813,
            "type" : "VEC2"
        },
        {
            "bufferView" : 24,
            "componentType" : 5126,
            "count" : 43813,
            "type" : "VEC2"
        },
        {
            "bufferView" : 25,
            "componentType" : 5126,
            "count" : 43813,
            "type" : "VEC2"
        },
        {
            "bufferView" : 26,
            "componentType" : 5126,
            "count" : 43813,
            "type" : "VEC2"
        },
        {
            "bufferView" : 27,
            "componentType" : 5123,
            "count" : 245316,
            "type" : "SCALAR"
        },
        {
            "bufferView" : 28,
            "componentType" : 5126,
            "count" : 3863,
            "max" : [
                0.8745712041854858,
                0.16029581427574158,
                0.640792727470398
            ],
            "min" : [
                -0.9593490362167358,
                -0.5496735572814941,
                -0.7548636198043823
            ],
            "type" : "VEC3"
        },
        {
            "bufferView" : 29,
            "componentType" : 5126,
            "count" : 3863,
            "type" : "VEC3"
        },
        {
            "bufferView" : 30,
            "componentType" : 5126,
            "count" : 3863,
            "type" : "VEC2"
        },
        {
            "bufferView" : 31,
            "componentType" : 5126,
            "count" : 3863,
            "type" : "VEC2"
        },
        {
            "bufferView" : 32,
            "componentType" : 5126,
            "count" : 3863,
            "type" : "VEC2"
        },
        {
            "bufferView" : 33,
            "componentType" : 5126,
            "count" : 3863,
            "type" : "VEC2"
        },
        {
            "bufferView" : 34,
            "componentType" : 5123,
            "count" : 19680,
            "type" : "SCALAR"
        },
        {
            "bufferView" : 35,
            "componentType" : 5126,
            "count" : 19199,
            "max" : [
                0.9622209072113037,
                -0.7386366128921509,
                0.8332768678665161
            ],
            "min" : [
                -3.3372719287872314,
                -1.2056761980056763,
                -0.7873197197914124
            ],
            "type" : "VEC3"
        },
        {
            "bufferView" : 36,
            "componentType" : 5126,
            "count" : 19199,
            "type" : "VEC3"
        },
        {
            "bufferView" : 37,
            "componentType" : 5126,
            "count" : 19199,
            "type" : "VEC2"
        },
        {
            "bufferView" : 38,
            "componentType" : 5126,
            "count" : 19199,
            "type" : "VEC2"
        },
        {
            "bufferView" : 39,
            "componentType" : 5126,
            "count" : 19199,
            "type" : "VEC2"
        },
        {
            "bufferView" : 40,
            "componentType" : 5126,
            "count" : 19199,
            "type" : "VEC2"
        },
        {
            "bufferView" : 41,
            "componentType" : 5123,
            "count" : 101064,
            "type" : "SCALAR"
        },
        {
            "bufferView" : 42,
            "componentType" : 5126,
            "count" : 28048,
            "max" : [
                -0.24650388956069946,
                0.9777360558509827,
                0.5611868500709534
            ],
            "min" : [
                -2.0559823513031006,
                -0.33844292163848877,
                -0.5672532320022583
            ],
            "type" : "VEC3"
        },
        {
            "bufferView" : 43,
            "componentType" : 5126,
            "count" : 28048,
            "type" : "VEC3"
        },
        {
            "bufferView" : 44,
            "componentType" : 5126,
            "count" : 28048,
            "type" : "VEC2"
        },
        {
            "bufferView" : 45,
            "componentType" : 5126,
            "count" : 28048,
            "type" : "VEC2"
        },
        {
            "bufferView" : 46,
            "componentType" : 5126,
            "count" : 28048,
            "type" : "VEC2"
        },
        {
            "bufferView" : 47,
            "componentType" : 5126,
            "count" : 28048,
            "type" : "VEC2"
        },
        {
            "bufferView" : 48,
            "componentType" : 5123,
            "count" : 159732,
            "type" : "SCALAR"
        }
    ],
    "bufferViews" : [
        {
            "buffer" : 0,
            "byteLength" : 296904,
            "byteOffset" : 0
        },
        {
            "buffer" : 0,
            "byteLength" : 296904,
            "byteOffset" : 296904
        },
        {
            "buffer" : 0,
            "byteLength" : 197936,
            "byteOffset" : 593808
        },
        {
            "buffer" : 0,
            "byteLength" : 197936,
            "byteOffset" : 791744
        },
        {
            "buffer" : 0,
            "byteLength" : 197936,
            "byteOffset" : 989680
        },
        {
            "buffer" : 0,
            "byteLength" : 197936,
            "byteOffset" : 1187616
        },
        {
            "buffer" : 0,
            "byteLength" : 236652,
            "byteOffset" : 1385552
        },
        {
            "buffer" : 0,
            "byteLength" : 247716,
            "byteOffset" : 1622204
        },
        {
            "buffer" : 0,
            "byteLength" : 247716,
            "byteOffset" : 1869920
        },
        {
            "buffer" : 0,
            "byteLength" : 165144,
            "byteOffset" : 2117636
        },
        {
            "buffer" : 0,
            "byteLength" : 165144,
            "byteOffset" : 2282780
        },
        {
            "buffer" : 0,
            "byteLength" : 165144,
            "byteOffset" : 2447924
        },
        {
            "buffer" : 0,
            "byteLength" : 165144,
            "byteOffset" : 2613068
        },
        {
            "buffer" : 0,
            "byteLength" : 202050,
            "byteOffset" : 2778212
        },
        {
            "buffer" : 0,
            "byteLength" : 187008,
            "byteOffset" : 2980264
        },
        {
            "buffer" : 0,
            "byteLength" : 187008,
            "byteOffset" : 3167272
        },
        {
            "buffer" : 0,
            "byteLength" : 124672,
            "byteOffset" : 3354280
        },
        {
            "buffer" : 0,
            "byteLength" : 124672,
            "byteOffset" : 3478952
        },
        {
            "buffer" : 0,
            "byteLength" : 124672,
            "byteOffset" : 3603624
        },
        {
            "buffer" : 0,
            "byteLength" : 124672,
            "byteOffset" : 3728296
        },
        {
            "buffer" : 0,
            "byteLength" : 129432,
            "byteOffset" : 3852968
        },
        {
            "buffer" : 0,
            "byteLength" : 525756,
            "byteOffset" : 3982400
        },
        {
            "buffer" : 0,
            "byteLength" : 525756,
            "byteOffset" : 4508156
        },
        {
            "buffer" : 0,
            "byteLength" : 350504,
            "byteOffset" : 5033912
        },
        {
            "buffer" : 0,
            "byteLength" : 350504,
            "byteOffset" : 5384416
        },
        {
            "buffer" : 0,
            "byteLength" : 350504,
            "byteOffset" : 5734920
        },
        {
            "buffer" : 0,
            "byteLength" : 350504,
            "byteOffset" : 6085424
        },
        {
            "buffer" : 0,
            "byteLength" : 490632,
            "byteOffset" : 6435928
        },
        {
            "buffer" : 0,
            "byteLength" : 46356,
            "byteOffset" : 6926560
        },
        {
            "buffer" : 0,
            "byteLength" : 46356,
            "byteOffset" : 6972916
        },
        {
            "buffer" : 0,
            "byteLength" : 30904,
            "byteOffset" : 7019272
        },
        {
            "buffer" : 0,
            "byteLength" : 30904,
            "byteOffset" : 7050176
        },
        {
            "buffer" : 0,
            "byteLength" : 30904,
            "byteOffset" : 7081080
        },
        {
            "buffer" : 0,
            "byteLength" : 30904,
            "byteOffset" : 7111984
        },
        {
            "buffer" : 0,
            "byteLength" : 39360,
            "byteOffset" : 7142888
        },
        {
            "buffer" : 0,
            "byteLength" : 230388,
            "byteOffset" : 7182248
        },
        {
            "buffer" : 0,
            "byteLength" : 230388,
            "byteOffset" : 7412636
        },
        {
            "buffer" : 0,
            "byteLength" : 153592,
            "byteOffset" : 7643024
        },
        {
            "buffer" : 0,
            "byteLength" : 153592,
            "byteOffset" : 7796616
        },
        {
            "buffer" : 0,
            "byteLength" : 153592,
            "byteOffset" : 7950208
        },
        {
            "buffer" : 0,
            "byteLength" : 153592,
            "byteOffset" : 8103800
        },
        {
            "buffer" : 0,
            "byteLength" : 202128,
            "byteOffset" : 8257392
        },
        {
            "buffer" : 0,
            "byteLength" : 336576,
            "byteOffset" : 8459520
        },
        {
            "buffer" : 0,
            "byteLength" : 336576,
            "byteOffset" : 8796096
        },
        {
            "buffer" : 0,
            "byteLength" : 224384,
            "byteOffset" : 9132672
        },
        {
            "buffer" : 0,
            "byteLength" : 224384,
            "byteOffset" : 9357056
        },
        {
            "buffer" : 0,
            "byteLength" : 224384,
            "byteOffset" : 9581440
        },
        {
            "buffer" : 0,
            "byteLength" : 224384,
            "byteOffset" : 9805824
        },
        {
            "buffer" : 0,
            "byteLength" : 319464,
            "byteOffset" : 10030208
        }
    ],
    "samplers" : [
        {
            "magFilter" : 9729,
            "minFilter" : 9987
        }
    ],
    "buffers" : [
        {
            "byteLength" : 10349672,
            "uri" : "sneaker.bin"
        }
    ]
}
